<svg id="Ebene_1" data-name="Ebene 1" xmlns="http://www.w3.org/2000/svg" xmlns:xlink="http://www.w3.org/1999/xlink" viewBox="0 0 208.2 79.36">
  <defs>
    <style>
      .cls-1 {
        fill: none;
      }

      .cls-2 {
        fill: #06467c;
      }

      .cls-3 {
        fill: #e50446;
      }

      .cls-4 {
        fill: #0391a0;
      }

      .cls-5 {
        clip-path: url(#clip-path);
      }

      .cls-6 {
        fill: #17a9e2;
      }
    </style>
    <clipPath id="clip-path" transform="translate(-0.17 -0.25)">
      <rect class="cls-1" x="0.17" y="0.25" width="208.2" height="79.36"/>
    </clipPath>
  </defs>
  <g>
    <path class="cls-2" d="M132.58,57.23H143a9.61,9.61,0,0,0,.12-1.68,7.66,7.66,0,0,0-8-8.09c-5.14,0-8.21,3.59-8.21,8.48,0,5.08,3.49,8.51,8.21,8.51a7.53,7.53,0,0,0,7.55-5.16H139a4,4,0,0,1-3.88,2.29c-2.93,0-4.81-2.23-4.81-5.52,0-3.46,1.82-5.73,4.66-5.73,2.59,0,4.56,1.64,4.59,4.15h-7a2.53,2.53,0,0,0,0,2.75Zm49.34,7.22a8.24,8.24,0,0,0,8.54-8.51,8.39,8.39,0,1,0-16.78,0c0,5.2,3.65,8.51,8.24,8.51Zm0-3c-2.74,0-4.77-2-4.77-5.55,0-3.28,1.88-5.52,4.86-5.52,3.2,0,5,2.51,5,5.52,0,3.58-2.42,5.55-5.05,5.55Zm-69.4-21.55a3.31,3.31,0,0,0-3.37,3.43V64.18h3.37V55c0-3,1.61-4.57,4.15-4.57S120.79,52,120.79,55v9.19h3.37v-9.7c0-4.18-2.42-7-6.54-7a6.46,6.46,0,0,0-5.1,2.18v-9.7ZM146,64.33a3.29,3.29,0,0,0,3.37-3.43V55.52c0-3.34,1.38-4.38,4.06-4.38h.87V47.46a5.42,5.42,0,0,0-4.93,2.66V47.73H146v16.6Zm59,0a3.29,3.29,0,0,0,3.37-3.43V54.48c0-4.69-3-7-6.75-7a5.76,5.76,0,0,0-4.89,2.45V47.73H193.3V64.18h3.37V55c0-3,1.61-4.57,4.15-4.57S204.94,52,204.94,55v9.34Zm-44.15-7.1h10.45a9.67,9.67,0,0,0,.11-1.68,7.66,7.66,0,0,0-8-8.09c-5.13,0-8.2,3.59-8.2,8.48,0,5.08,3.49,8.51,8.2,8.51a7.53,7.53,0,0,0,7.56-5.16h-3.67a4,4,0,0,1-3.89,2.29c-2.92,0-4.8-2.23-4.8-5.52,0-3.46,1.82-5.73,4.66-5.73,2.59,0,4.56,1.64,4.59,4.15h-7a2.53,2.53,0,0,0,0,2.75Z" transform="translate(-0.17 -0.25)"/>
    <polygon class="cls-2" points="138.92 36.94 138.92 42.04 138.09 42.04 138.09 39.81 135.69 39.81 135.69 42.04 134.85 42.04 134.85 36.94 135.69 36.94 135.69 39.13 138.09 39.13 138.09 36.94 138.92 36.94 138.92 36.94"/>
    <path class="cls-2" d="M143.14,39.9a1,1,0,0,0-.33-.74,1.24,1.24,0,0,0-.8-.28,1,1,0,0,0-.74.28,1.12,1.12,0,0,0-.37.74Zm.84.68h-3.09a1.14,1.14,0,0,0,.36.77,1.13,1.13,0,0,0,.79.3,1,1,0,0,0,1-.57h.9a1.81,1.81,0,0,1-.67.92,2.19,2.19,0,0,1-2.22.09,1.81,1.81,0,0,1-.72-.73,2.18,2.18,0,0,1-.26-1.1,2.25,2.25,0,0,1,.25-1.09,1.72,1.72,0,0,1,.71-.73,2.15,2.15,0,0,1,1-.26,2,2,0,0,1,1,.25,1.81,1.81,0,0,1,.7.7,2.19,2.19,0,0,1,.25,1,2.63,2.63,0,0,1,0,.41Z" transform="translate(-0.17 -0.25)"/>
    <polygon class="cls-2" points="145.6 36.61 145.6 42.04 144.77 42.04 144.77 36.61 145.6 36.61 145.6 36.61"/>
    <path class="cls-2" d="M152.77,38.38a1.38,1.38,0,0,1,.59.58,2,2,0,0,1,.22.94v2.39h-.83V40a1.21,1.21,0,0,0-.27-.84,1,1,0,0,0-.74-.28,1,1,0,0,0-.75.28,1.21,1.21,0,0,0-.27.84v2.26h-.83V40a1.21,1.21,0,0,0-.27-.84,1,1,0,0,0-.74-.28,1,1,0,0,0-.75.28,1.21,1.21,0,0,0-.27.84v2.26H147v-4h.84v.46a1.28,1.28,0,0,1,.52-.39,1.67,1.67,0,0,1,.67-.14,1.89,1.89,0,0,1,.87.2,1.4,1.4,0,0,1,.58.6,1.35,1.35,0,0,1,.58-.58,1.61,1.61,0,0,1,.83-.22,1.85,1.85,0,0,1,.86.2Z" transform="translate(-0.17 -0.25)"/>
    <path class="cls-2" d="M157.63,38.38a1.39,1.39,0,0,1,.57.58,2,2,0,0,1,.21.94v2.39h-.83V40a1.21,1.21,0,0,0-.27-.84,1,1,0,0,0-.74-.28,1,1,0,0,0-.75.28,1.21,1.21,0,0,0-.27.84v2.26h-.84V36.86h.84v1.85a1.34,1.34,0,0,1,.54-.39,1.83,1.83,0,0,1,.71-.14,1.73,1.73,0,0,1,.83.2Z" transform="translate(-0.17 -0.25)"/>
    <path class="cls-2" d="M161.9,41.47a1.2,1.2,0,0,0,.46-.46,1.46,1.46,0,0,0,.18-.75,1.53,1.53,0,0,0-.17-.74,1.11,1.11,0,0,0-.45-.46,1.21,1.21,0,0,0-.6-.15,1.24,1.24,0,0,0-.6.15,1.07,1.07,0,0,0-.43.46,1.53,1.53,0,0,0-.16.74,1.43,1.43,0,0,0,.33,1,1.09,1.09,0,0,0,.84.36,1.25,1.25,0,0,0,.6-.16Zm-1.64.62a1.87,1.87,0,0,1-.72-.73,2.19,2.19,0,0,1-.27-1.1,2.08,2.08,0,0,1,.28-1.09,1.79,1.79,0,0,1,.74-.73,2.23,2.23,0,0,1,2.09,0,1.79,1.79,0,0,1,.74.73,2.08,2.08,0,0,1,.28,1.09,2.15,2.15,0,0,1-.28,1.09,1.93,1.93,0,0,1-.76.74,2.13,2.13,0,0,1-1.06.26,2,2,0,0,1-1-.26Z" transform="translate(-0.17 -0.25)"/>
    <polygon class="cls-2" points="164.96 36.61 164.96 42.04 164.13 42.04 164.13 36.61 164.96 36.61 164.96 36.61"/>
    <path class="cls-2" d="M167.35,38.93v2.23a.44.44,0,0,0,.11.33.5.5,0,0,0,.36.1h.52v.7h-.66a1.26,1.26,0,0,1-.87-.27,1.08,1.08,0,0,1-.3-.86V38.93H166v-.68h.47v-1h.84v1h1v.68Z" transform="translate(-0.17 -0.25)"/>
    <polygon class="cls-2" points="169.86 41.36 171.69 41.36 171.69 42.04 168.89 42.04 168.89 41.36 170.73 38.68 168.89 38.68 168.89 38 171.69 38 171.69 38.68 169.86 41.36 169.86 41.36"/>
    <polygon class="cls-2" points="175.93 39.03 175.93 39.74 172.92 39.74 172.92 39.03 175.93 39.03 175.93 39.03"/>
    <polygon class="cls-2" points="178.07 41.31 180.44 41.31 180.44 42.04 177.08 42.04 177.08 41.39 179.44 37.67 177.08 37.67 177.08 36.94 180.44 36.94 180.44 37.6 178.07 41.31 178.07 41.31"/>
    <path class="cls-2" d="M184.43,39.9a.92.92,0,0,0-.33-.74,1.2,1.2,0,0,0-.8-.28,1.07,1.07,0,0,0-.74.28,1.16,1.16,0,0,0-.36.74Zm.85.68h-3.09a1.06,1.06,0,0,0,.36.77,1.11,1.11,0,0,0,.79.3,1,1,0,0,0,.95-.57h.91a1.87,1.87,0,0,1-.67.92,2.2,2.2,0,0,1-2.23.09,1.94,1.94,0,0,1-.72-.73,2.29,2.29,0,0,1-.26-1.1,2.25,2.25,0,0,1,.26-1.09,1.72,1.72,0,0,1,.71-.73,2.1,2.1,0,0,1,1.05-.26,2,2,0,0,1,1,.25,1.81,1.81,0,0,1,.7.7,2.19,2.19,0,0,1,.25,1,2.63,2.63,0,0,1,0,.41Z" transform="translate(-0.17 -0.25)"/>
    <path class="cls-2" d="M189.13,38.38a1.38,1.38,0,0,1,.59.58,2,2,0,0,1,.21.94v2.39h-.83V40a1.21,1.21,0,0,0-.27-.84,1,1,0,0,0-.74-.28,1,1,0,0,0-.74.28,1.17,1.17,0,0,0-.28.84v2.26h-.83v-4h.83v.46a1.38,1.38,0,0,1,.53-.39,1.72,1.72,0,0,1,.68-.14,1.84,1.84,0,0,1,.85.2Z" transform="translate(-0.17 -0.25)"/>
    <path class="cls-2" d="M192.08,38.93v2.23a.44.44,0,0,0,.11.33.5.5,0,0,0,.36.1h.51v.7h-.66a1.25,1.25,0,0,1-.86-.27,1.08,1.08,0,0,1-.3-.86V38.93h-.48v-.68h.48v-1h.84v1h1v.68Z" transform="translate(-0.17 -0.25)"/>
    <path class="cls-2" d="M195.34,38.35a1.47,1.47,0,0,1,.72-.17V39h-.21a1,1,0,0,0-.74.25,1.21,1.21,0,0,0-.26.87v2.13H194v-4h.83v.58a1.5,1.5,0,0,1,.49-.48Z" transform="translate(-0.17 -0.25)"/>
    <path class="cls-2" d="M200.6,38.25v4h-.83v-.48a1.35,1.35,0,0,1-.52.39,1.56,1.56,0,0,1-.68.14,1.8,1.8,0,0,1-.85-.19,1.48,1.48,0,0,1-.6-.59,2,2,0,0,1-.21-.94V38.25h.82V40.5a1.17,1.17,0,0,0,.28.83,1,1,0,0,0,.74.29,1,1,0,0,0,.74-.29,1.17,1.17,0,0,0,.28-.83V38.25Z" transform="translate(-0.17 -0.25)"/>
    <path class="cls-2" d="M207.56,38.38a1.38,1.38,0,0,1,.59.58,1.87,1.87,0,0,1,.22.94v2.39h-.83V40a1.21,1.21,0,0,0-.27-.84,1,1,0,0,0-.74-.28,1,1,0,0,0-.75.28,1.21,1.21,0,0,0-.27.84v2.26h-.83V40a1.21,1.21,0,0,0-.27-.84,1,1,0,0,0-.74-.28,1,1,0,0,0-.75.28,1.21,1.21,0,0,0-.27.84v2.26h-.84v-4h.84v.46a1.28,1.28,0,0,1,.52-.39,1.67,1.67,0,0,1,.67-.14,1.89,1.89,0,0,1,.87.2,1.48,1.48,0,0,1,.59.6,1.28,1.28,0,0,1,.57-.58,1.61,1.61,0,0,1,.83-.22,1.85,1.85,0,0,1,.86.2Z" transform="translate(-0.17 -0.25)"/>
    <path class="cls-3" d="M13.57,50.34l2.71-.52,0,0A31.67,31.67,0,0,1,24,8.1,31.41,31.41,0,0,1,34.56,2.79L33.83.25A34.25,34.25,0,0,0,10.32,42.66a34.68,34.68,0,0,0,3.25,7.68Z" transform="translate(-0.17 -0.25)"/>
    <path class="cls-4" d="M82,51.12c.07.2.13.41.19.61-.06-.2-.12-.41-.19-.61Z" transform="translate(-0.17 -0.25)"/>
    <polygon class="cls-4" points="83.15 49.72 83.15 49.73 83.15 49.72 83.15 49.72 83.15 49.72"/>
    <polygon class="cls-4" points="80.51 45.71 80.51 45.71 80.51 45.71 80.51 45.71 80.51 45.71"/>
    <polygon class="cls-4" points="78.24 43.35 78.24 43.35 78.24 43.35 78.24 43.35 78.24 43.35"/>
    <path class="cls-4" d="M82.16,51.8a9.68,9.68,0,0,1,.27,1.3,9.68,9.68,0,0,0-.27-1.3Z" transform="translate(-0.17 -0.25)"/>
    <polygon class="cls-4" points="81.09 46.43 81.09 46.43 81.09 46.43 81.09 46.43 81.09 46.43"/>
    <polygon class="cls-4" points="84.37 53.2 84.37 53.2 84.37 53.2 84.37 53.2 84.37 53.2"/>
    <path class="cls-4" d="M80.24,47.82l.38.57-.38-.57Z" transform="translate(-0.17 -0.25)"/>
    <path class="cls-4" d="M80.65,48.43a13.25,13.25,0,0,1,.68,1.21,13.25,13.25,0,0,0-.68-1.21Z" transform="translate(-0.17 -0.25)"/>
    <path class="cls-4" d="M82,51.11a12.87,12.87,0,0,0-.6-1.44c.13.26.25.52.36.79l.24.65Z" transform="translate(-0.17 -0.25)"/>
    <g class="cls-5">
      <path class="cls-4" d="M82.53,54.54a10.63,10.63,0,0,1-.29,2.3c-.07.3-.15.62-.24.94a12.42,12.42,0,0,0,.53-3.24,11.32,11.32,0,0,0-.1-1.43,8.46,8.46,0,0,1,.08.88c0,.18,0,.37,0,.55Z" transform="translate(-0.17 -0.25)"/>
      <path class="cls-4" d="M84.88,56.18a14.26,14.26,0,0,0-.34-2.74h0c-.06-.28-.13-.57-.21-.85a17.22,17.22,0,0,0-1-2.62h0c-.13-.27-.27-.53-.41-.79a20,20,0,0,0-1.65-2.5h0c-.18-.25-.38-.49-.58-.73h0a24.93,24.93,0,0,0-2.27-2.35h0L77.69,43a34.4,34.4,0,0,0-5.08-3.55,62.49,62.49,0,0,0-14.39-6.28l.05.18q.18.63.33,1.26a55.81,55.81,0,0,1,12.17,5.31c4.2,2.43,7.45,5.06,9.45,7.91l0,0,.38.57,0,0a13.25,13.25,0,0,1,.68,1.21h0v0a12.87,12.87,0,0,1,.6,1.44h0c.07.2.13.41.19.61,0,0,0,.05,0,.07a9.68,9.68,0,0,1,.27,1.3h0a11.32,11.32,0,0,1,.1,1.43A12.42,12.42,0,0,1,82,57.78v0h0c-1.72,6.08-7.43,14.83-14.13,17C59.16,77.74,47,71,37.33,71S22.41,75,14,71.15C6,67.51,3.65,61.92,6.06,57.06,8.9,51.34,19.62,52.29,27,48c6.74-3.9,8.42-11.62,15.27-14-.08-.49-.17-1-.27-1.48C33,35,33.8,42.11,25.9,46.68,17.72,51.42,3.77,49.53,1,56.56S1.88,71.32,11.59,74.9C20.46,78.17,27.27,75,38,75s21.16,7.17,30.94,3.67c8.9-3.18,15.93-15.86,16-22.08h0c0-.13,0-.25,0-.38Z" transform="translate(-0.17 -0.25)"/>
    </g>
    <path class="cls-4" d="M57.63,34.3l-.21-.75-.18-.68c-1-.26-2-.47-3-.65.13.47.25.94.37,1.41,1,.18,2,.41,3.06.67Z" transform="translate(-0.17 -0.25)"/>
    <path class="cls-4" d="M78.41,43.6A24.93,24.93,0,0,1,80.68,46a24.93,24.93,0,0,0-2.27-2.35Z" transform="translate(-0.17 -0.25)"/>
    <path class="cls-4" d="M44.19,33.51c.58-.1,1.17-.18,1.75-.25-.1-.46-.2-.92-.32-1.37A24.27,24.27,0,0,0,43,32.3l-.16,0c.1.47.2.94.28,1.42.35-.1.72-.18,1.1-.25Z" transform="translate(-0.17 -0.25)"/>
    <path class="cls-4" d="M84.88,56.18h0a14.26,14.26,0,0,0-.34-2.74,14.26,14.26,0,0,1,.34,2.74Z" transform="translate(-0.17 -0.25)"/>
    <polygon class="cls-4" points="82.26 52.85 82.26 52.85 82.26 52.85 82.26 52.85 82.26 52.85"/>
    <path class="cls-4" d="M82.14,51.73s0,.05,0,.07,0,0,0-.07Z" transform="translate(-0.17 -0.25)"/>
    <path class="cls-4" d="M82,51.11h0Z" transform="translate(-0.17 -0.25)"/>
    <path class="cls-4" d="M49.73,33.12c-.11-.46-.23-.92-.35-1.38-1,0-1.91,0-2.87.07.11.45.22.91.32,1.37,1-.07,1.94-.08,2.9-.06Z" transform="translate(-0.17 -0.25)"/>
    <path class="cls-4" d="M83.32,50a17.22,17.22,0,0,1,1,2.62h0a17.22,17.22,0,0,0-1-2.62Z" transform="translate(-0.17 -0.25)"/>
    <path class="cls-4" d="M80.22,47.79l0,0,0,0Z" transform="translate(-0.17 -0.25)"/>
    <path class="cls-4" d="M80.62,48.39l0,0,0,0Z" transform="translate(-0.17 -0.25)"/>
    <path class="cls-4" d="M53.62,33.47c-.12-.45-.24-.91-.37-1.36v0c-1-.14-2-.24-2.94-.29.12.46.24.92.35,1.38,1,.06,2,.17,3,.31Z" transform="translate(-0.17 -0.25)"/>
    <path class="cls-4" d="M81.26,46.68a20,20,0,0,1,1.65,2.5h0a20,20,0,0,0-1.65-2.5Z" transform="translate(-0.17 -0.25)"/>
    <polygon class="cls-4" points="81.17 49.4 81.16 49.39 81.17 49.4 81.17 49.4 81.17 49.4"/>
    <path class="cls-4" d="M82,57.81v0Z" transform="translate(-0.17 -0.25)"/>
    <path class="cls-4" d="M84.88,56.18h0c0,.13,0,.25,0,.38h0c0-.13,0-.25,0-.38Z" transform="translate(-0.17 -0.25)"/>
    <path class="cls-4" d="M84.33,52.59c.08.28.15.57.21.85-.06-.28-.13-.57-.21-.85Z" transform="translate(-0.17 -0.25)"/>
    <polygon class="cls-4" points="82.26 52.86 82.26 52.85 82.26 52.85 82.26 52.86 82.26 52.86"/>
    <path class="cls-4" d="M82.91,49.18c.14.26.28.52.41.79-.13-.27-.27-.53-.41-.79Z" transform="translate(-0.17 -0.25)"/>
    <path class="cls-4" d="M81.35,49.67v0h0v0Z" transform="translate(-0.17 -0.25)"/>
    <path class="cls-4" d="M81.26,46.68c-.18-.25-.38-.49-.58-.73.2.24.4.48.58.73Z" transform="translate(-0.17 -0.25)"/>
    <path class="cls-4" d="M78.41,43.59,77.69,43l.72.63Z" transform="translate(-0.17 -0.25)"/>
    <path class="cls-3" d="M63,45.15a22.81,22.81,0,0,0,3-7.81c-.82-.38-1.66-.74-2.51-1.09a20.07,20.07,0,0,1-2.72,7.53,21,21,0,0,1-2.06,2.8,9,9,0,0,0,2.17,1.53,23.29,23.29,0,0,0,2.15-3Z" transform="translate(-0.17 -0.25)"/>
    <path class="cls-3" d="M37.49,52.72a19.73,19.73,0,0,1-4.57-2A20.08,20.08,0,0,1,28.4,47.1,16.22,16.22,0,0,1,27,48c-.28.16-.57.32-.86.46a22.85,22.85,0,0,0,11.41,7,8.47,8.47,0,0,1,0-2.75Z" transform="translate(-0.17 -0.25)"/>
    <path class="cls-3" d="M27.23,45.73a20.35,20.35,0,0,1,3.51-28.59l-1.63-2.08A23.07,23.07,0,0,0,21,39a23,23,0,0,0,4,8.21c.31-.16.61-.32.9-.49.5-.28,1-.58,1.38-.88l-.05-.07Z" transform="translate(-0.17 -0.25)"/>
    <path class="cls-3" d="M57.45,51.33a22.81,22.81,0,0,0,2.75-2.54A10.13,10.13,0,0,1,58,47.23a19.17,19.17,0,0,1-2.21,2c-.48.38-1,.73-1.48,1.06a11.83,11.83,0,0,0,2.14,1.75c.33-.23.65-.47,1-.72Z" transform="translate(-0.17 -0.25)"/>
    <path class="cls-3" d="M38.44,55.69c.67.14,1.35.26,2,.35a24.42,24.42,0,0,0,2.83.17h.25a10.79,10.79,0,0,1-1.19-2.67c-.52,0-1-.07-1.57-.13A20,20,0,0,1,38.35,53a7.92,7.92,0,0,0,.09,2.74Z" transform="translate(-0.17 -0.25)"/>
    <path class="cls-3" d="M49.05,55.48c.32-.08.63-.18,1-.27l-.4-.4A12.58,12.58,0,0,1,48.14,53a20.28,20.28,0,0,1-4.84.58,10,10,0,0,0,1.28,2.61,22.59,22.59,0,0,0,4.47-.69Z" transform="translate(-0.17 -0.25)"/>
    <path class="cls-3" d="M51,54.89a22.77,22.77,0,0,0,4.73-2.31,13.19,13.19,0,0,1-2-1.7.52.52,0,0,0-.1-.11,20.48,20.48,0,0,1-4.53,2,11.28,11.28,0,0,0,1.19,1.47q.35.36.72.69Z" transform="translate(-0.17 -0.25)"/>
    <path class="cls-6" d="M92.56,35a44.82,44.82,0,0,1-3.7-2.67C82.09,26.71,79.18,20.2,77,14.55,73.44,5.47,62,2.4,53.1,4.13A23.13,23.13,0,0,0,47.76,5.8l.82.14.78.18A23.16,23.16,0,0,1,53.27,5,25.59,25.59,0,0,1,58,4.55c7.49,0,15.37,3.22,18.13,10.32C78.39,20.63,81.36,27.26,88.3,33c1.16,1,2.48,1.85,3.76,2.71,4.57,3.09,8.88,6,7.56,12-1,4.34-7.7,6.65-14.74,8.46,0,.13,0,.25,0,.38s0,.35,0,.53c7.37-1.89,14.55-4.31,15.61-9.19,1.45-6.61-3.32-9.83-7.92-12.94Z" transform="translate(-0.17 -0.25)"/>
    <path class="cls-6" d="M70.77,60.19A13.4,13.4,0,0,0,65.35,65c-1.4,2-2.62,3.66-6.61,4.12-5.07.59-12.23-2.47-16.66-7.11-2.88-3-4.2-6.29-3.72-9.22a21.16,21.16,0,0,1,2.39-6.29c1.32-2.61,2.68-5.3,2.68-8.92a38.4,38.4,0,0,0-1.82-10.06,35.33,35.33,0,0,1-1.69-8.93c-.07-5.9,3.56-9.75,8-11.9-.52-.09-1-.17-1.56-.23A13.69,13.69,0,0,0,39,18.64a36.73,36.73,0,0,0,1.73,9.16,37.45,37.45,0,0,1,1.79,9.82c0,3.41-1.26,5.89-2.59,8.52a22.47,22.47,0,0,0-2.47,6.55c-.52,3.21.88,6.75,3.95,10a26,26,0,0,0,8.31,5.69,19.79,19.79,0,0,0,7.69,1.77,12.7,12.7,0,0,0,1.4-.08c4.38-.51,5.76-2.44,7.23-4.48A12.27,12.27,0,0,1,71.15,61c2.29-1.11,6-2,9.89-3l1-.23c.09-.33.17-.65.24-1l-1.41.34a58.53,58.53,0,0,0-10.06,3Z" transform="translate(-0.17 -0.25)"/>
    <path class="cls-6" d="M70.33,56.54a11.26,11.26,0,0,0-4.6,4.12c-1.24,1.71-2.21,3.07-5.55,3.45-4.26.5-10.29-2.08-14-6-2.42-2.53-3.53-5.27-3.13-7.73a17.77,17.77,0,0,1,2-5.3c1.12-2.21,2.28-4.49,2.28-7.57A32.2,32.2,0,0,0,45.77,29a29.84,29.84,0,0,1-1.42-7.53C44.27,14.63,50.1,11.07,55.58,10c.33-.07.67-.12,1-.17-.42-.24-.84-.46-1.27-.68-8.81,1.74-11.91,7.5-11.86,12.32a31.52,31.52,0,0,0,1.46,7.75,31.38,31.38,0,0,1,1.51,8.29c0,2.87-1.06,5-2.18,7.17a18.92,18.92,0,0,0-2.09,5.56c-.45,2.73.75,5.75,3.36,8.48,3.63,3.8,9.12,6.33,13.54,6.33A9.65,9.65,0,0,0,60.28,65c3.73-.43,4.91-2.08,6.16-3.82a10.45,10.45,0,0,1,4.27-3.84,48.78,48.78,0,0,1,8.34-2.48c1.14-.28,2.31-.56,3.46-.86a8.65,8.65,0,0,0-.08-.89c-1.2.31-2.4.6-3.59.89a48.74,48.74,0,0,0-8.51,2.55Z" transform="translate(-0.17 -0.25)"/>
    <path class="cls-6" d="M95.54,46.23c1.23-5.64-2.82-8.37-6.73-11-1.06-.72-2.17-1.47-3.12-2.25-5.71-4.72-8.17-10.2-10-15C72.85,10.74,64.11,8,56.78,8.93c.43.24.86.49,1.29.76.5,0,1-.06,1.51-.06,6.31,0,12.94,2.71,15.26,8.68,1.9,4.88,4.42,10.49,10.29,15.34,1,.81,2.1,1.56,3.19,2.3,3.84,2.59,7.46,5,6.36,10.09-.7,3.21-5.22,5.1-10.35,6.55.08.28.15.57.21.85,5.4-1.52,10.2-3.56,11-7.21Z" transform="translate(-0.17 -0.25)"/>
    <path class="cls-6" d="M90.6,44.55c1-4.66-2.31-6.91-5.53-9.08-.87-.59-1.77-1.2-2.55-1.83-4.65-3.84-6.65-8.31-8.16-12.2C72.6,16.91,68,14.52,63.31,14q.48.49.93,1c4.05.72,7.79,2.9,9.3,6.77S77.15,30.35,82,34.32c.81.66,1.73,1.28,2.61,1.88,3.12,2.1,6.05,4.09,5.16,8.16-.49,2.25-3.34,3.7-6.82,4.82l.41.79c3.67-1.2,6.7-2.8,7.28-5.42Z" transform="translate(-0.17 -0.25)"/>
    <path class="cls-6" d="M69.89,52.88a9.18,9.18,0,0,0-3.79,3.4,5.4,5.4,0,0,1-4.48,2.78c-3.46.41-8.35-1.69-11.39-4.86-1.95-2.05-2.85-4.27-2.53-6.25a14.66,14.66,0,0,1,1.63-4.31,13.09,13.09,0,0,0,1.87-6.22,26.45,26.45,0,0,0-1.26-7,24.37,24.37,0,0,1-1.16-6.13c-.06-5.54,4.66-8.43,9.11-9.29a17.51,17.51,0,0,1,5-.21c-.31-.33-.62-.64-.94-1a17.93,17.93,0,0,0-4.23.3c-7.31,1.41-9.87,6.17-9.83,10.15a25.76,25.76,0,0,0,1.2,6.36,26.07,26.07,0,0,1,1.23,6.75,12.25,12.25,0,0,1-1.77,5.82,15.25,15.25,0,0,0-1.72,4.56c-.37,2.26.61,4.75,2.77,7,3,3.11,7.49,5.19,11.12,5.19a8.14,8.14,0,0,0,1-.06,6.24,6.24,0,0,0,5.09-3.15,8.36,8.36,0,0,1,3.46-3.11,39.92,39.92,0,0,1,6.8-2c1.53-.37,3.11-.75,4.64-1.19-.12-.27-.24-.54-.37-.81-1.47.42-3,.79-4.48,1.15a40.07,40.07,0,0,0-7,2.08Z" transform="translate(-0.17 -0.25)"/>
    <path class="cls-6" d="M69.44,49.23a7.24,7.24,0,0,0-3,2.66A4.11,4.11,0,0,1,63.06,54c-2.66.3-6.42-1.31-8.75-3.75-1.5-1.57-2.19-3.26-1.94-4.77a11.06,11.06,0,0,1,1.26-3.31,10.23,10.23,0,0,0,1.46-4.87,20.4,20.4,0,0,0-1-5.45,18.72,18.72,0,0,1-.89-4.73c-.05-4.23,3.58-6.44,7-7.1A13.36,13.36,0,0,1,67,20.5c-.2-.37-.41-.74-.63-1.1A14.25,14.25,0,0,0,60,19.17c-5.73,1.11-7.74,4.85-7.71,8a20.46,20.46,0,0,0,.93,5,19.86,19.86,0,0,1,1,5.21,9.44,9.44,0,0,1-1.37,4.47,12.07,12.07,0,0,0-1.34,3.57c-.29,1.78.48,3.74,2.17,5.52a13.09,13.09,0,0,0,8.71,4.06,6.53,6.53,0,0,0,.78,0,4.91,4.91,0,0,0,4-2.48A6.41,6.41,0,0,1,69.83,50a30.5,30.5,0,0,1,5.25-1.56c1.57-.38,3.2-.78,4.71-1.26l-.61-.74c-1.41.44-2.91.8-4.3,1.14a31.92,31.92,0,0,0-5.44,1.63Z" transform="translate(-0.17 -0.25)"/>
    <path class="cls-6" d="M85.65,42.87c.81-3.68-1.92-5.52-4.33-7.15-.67-.45-1.37-.92-2-1.41a21.28,21.28,0,0,1-6.31-9.43,9,9,0,0,0-5.46-5.09c.23.41.44.82.64,1.24a7.84,7.84,0,0,1,4,4.17A22.11,22.11,0,0,0,78.79,35c.63.52,1.35,1,2,1.47,2.38,1.61,4.64,3.13,4,6.22-.31,1.44-2,2.47-4.11,3.27.2.24.4.49.58.73,2.26-.89,4-2.06,4.39-3.81Z" transform="translate(-0.17 -0.25)"/>
    <path class="cls-6" d="M80.71,41.19c.59-2.7-1.39-4-3.13-5.21-.5-.34-1-.66-1.39-1a15.09,15.09,0,0,1-4.45-6.65A5.88,5.88,0,0,0,70.1,26c.17.61.31,1.23.43,1.86a4.73,4.73,0,0,1,.39.78,16.11,16.11,0,0,0,4.71,7c.45.37,1,.72,1.45,1.05,1.73,1.17,3.23,2.18,2.77,4.3-.18.81-1,1.44-2.16,2,.24.21.49.42.72.64a3.85,3.85,0,0,0,2.3-2.41Z" transform="translate(-0.17 -0.25)"/>
    <path class="cls-6" d="M62.34,24.19c-3.48.67-5.62,2.89-5.59,5.8a14.71,14.71,0,0,0,.67,3.56,14.12,14.12,0,0,1,.67,3.67,6.61,6.61,0,0,1-1,3.12,8.53,8.53,0,0,0-1,2.58,4.85,4.85,0,0,0,1.58,4A9.44,9.44,0,0,0,64,49.87l.57,0A3.64,3.64,0,0,0,67.55,48a4.44,4.44,0,0,1,1.84-1.65,20.61,20.61,0,0,1,3.71-1.1c1.28-.32,2.63-.64,3.83-1.06-.25-.23-.52-.45-.79-.67-1,.33-2.2.61-3.25.87A22.22,22.22,0,0,0,69,45.57a5.23,5.23,0,0,0-2.16,1.94A2.82,2.82,0,0,1,64.5,49a8.29,8.29,0,0,1-6.11-2.63A4,4,0,0,1,57,43.06a8,8,0,0,1,.88-2.32,7.37,7.37,0,0,0,1-3.52,14.66,14.66,0,0,0-.7-3.91A13.34,13.34,0,0,1,57.64,30c0-2.93,2.49-4.47,4.86-4.93a9.4,9.4,0,0,1,1.77-.16,8.16,8.16,0,0,1,5,1.6c-.12-.44-.24-.87-.38-1.3a9.86,9.86,0,0,0-6.6-1Z" transform="translate(-0.17 -0.25)"/>
    <path class="cls-3" d="M21.24,17.79a26.88,26.88,0,0,1,48.52,20l.82.44a27.77,27.77,0,0,0,.08-9.75A27.77,27.77,0,0,0,48.58,5.94a27.77,27.77,0,0,0-10.12-.09A27.74,27.74,0,0,0,16,27.91l.86.17a26.78,26.78,0,0,1,4.36-10.29Z" transform="translate(-0.17 -0.25)"/>
  </g>
</svg>